<svg width="28" height="28" viewBox="0 0 28 28" fill="none" xmlns="http://www.w3.org/2000/svg">
<g clip-path="url(#clip0_6_225)">
<path d="M22.1665 4.66675H5.83317C5.18884 4.66675 4.6665 5.18908 4.6665 5.83341V8.16675C4.6665 8.81108 5.18884 9.33341 5.83317 9.33341H22.1665C22.8108 9.33341 23.3332 8.81108 23.3332 8.16675V5.83341C23.3332 5.18908 22.8108 4.66675 22.1665 4.66675Z" stroke="#1E90FF" stroke-width="1.5" stroke-linecap="round" stroke-linejoin="round"/>
<path d="M10.4998 14H5.83317C5.18884 14 4.6665 14.5223 4.6665 15.1667V22.1667C4.6665 22.811 5.18884 23.3333 5.83317 23.3333H10.4998C11.1442 23.3333 11.6665 22.811 11.6665 22.1667V15.1667C11.6665 14.5223 11.1442 14 10.4998 14Z" stroke="#1E90FF" stroke-width="1.5" stroke-linecap="round" stroke-linejoin="round"/>
<path d="M16.3335 14H23.3335" stroke="#1E90FF" stroke-width="1.5" stroke-linecap="round" stroke-linejoin="round"/>
<path d="M16.3335 18.6667H23.3335" stroke="#1E90FF" stroke-width="1.5" stroke-linecap="round" stroke-linejoin="round"/>
<path d="M16.3335 23.3333H23.3335" stroke="#1E90FF" stroke-width="1.5" stroke-linecap="round" stroke-linejoin="round"/>
</g>
<defs>
<clipPath id="clip0_6_225">
<rect width="28" height="28" fill="white"/>
</clipPath>
</defs>
</svg>
