<svg width="28" height="28" viewBox="0 0 28 28" fill="none" xmlns="http://www.w3.org/2000/svg">
<g clip-path="url(#clip0_6_234)">
<path d="M15.1665 5.83325H24.4998" stroke="#757575" stroke-width="1.5" stroke-linecap="round" stroke-linejoin="round"/>
<path d="M15.1665 10.5H20.9998" stroke="#757575" stroke-width="1.5" stroke-linecap="round" stroke-linejoin="round"/>
<path d="M15.1665 17.5H24.4998" stroke="#757575" stroke-width="1.5" stroke-linecap="round" stroke-linejoin="round"/>
<path d="M15.1665 22.1667H20.9998" stroke="#757575" stroke-width="1.5" stroke-linecap="round" stroke-linejoin="round"/>
<path d="M9.33333 4.66675H4.66667C4.02233 4.66675 3.5 5.18908 3.5 5.83341V10.5001C3.5 11.1444 4.02233 11.6667 4.66667 11.6667H9.33333C9.97767 11.6667 10.5 11.1444 10.5 10.5001V5.83341C10.5 5.18908 9.97767 4.66675 9.33333 4.66675Z" stroke="#757575" stroke-width="1.5" stroke-linecap="round" stroke-linejoin="round"/>
<path d="M9.33333 16.3333H4.66667C4.02233 16.3333 3.5 16.8556 3.5 17.4999V22.1666C3.5 22.8109 4.02233 23.3333 4.66667 23.3333H9.33333C9.97767 23.3333 10.5 22.8109 10.5 22.1666V17.4999C10.5 16.8556 9.97767 16.3333 9.33333 16.3333Z" stroke="#757575" stroke-width="1.5" stroke-linecap="round" stroke-linejoin="round"/>
</g>
<defs>
<clipPath id="clip0_6_234">
<rect width="28" height="28" fill="white"/>
</clipPath>
</defs>
</svg>
